<?xml version="1.0" standalone="no"?>
<!DOCTYPE svg PUBLIC "-//W3C//DTD SVG 20010904//EN"
 "http://www.w3.org/TR/2001/REC-SVG-20010904/DTD/svg10.dtd">
<svg version="1.0" xmlns="http://www.w3.org/2000/svg"
 width="400.000000pt" height="400.000000pt" viewBox="0 0 400.000000 400.000000"
 preserveAspectRatio="xMidYMid meet">
<metadata>
Created by potrace 1.14, written by Peter Selinger 2001-2017
</metadata>
<g transform="translate(0.000000,400.000000) scale(0.100000,-0.100000)"
fill="#000000" stroke="none">
<path d="M0 2705 c0 -652 3 -1185 6 -1185 3 0 20 6 37 14 18 8 45 18 61 23 25
8 33 20 60 93 29 80 30 93 31 235 0 160 4 183 41 248 48 84 66 132 60 160 -7
35 22 97 45 97 10 0 20 9 24 19 7 23 52 36 70 21 18 -15 49 31 40 59 -4 15 8
33 52 76 59 58 196 165 211 165 5 0 17 8 26 19 9 10 91 55 182 101 190 94 215
99 494 102 220 2 332 -9 418 -39 l72 -25 122 22 c112 21 131 22 232 11 61 -6
138 -13 171 -16 177 -12 291 -31 326 -53 20 -12 50 -22 67 -22 22 0 45 -12 77
-40 25 -22 54 -40 64 -40 23 0 212 -203 219 -236 2 -8 -9 -27 -25 -42 -15 -15
-33 -36 -39 -47 -12 -21 -34 -13 -34 13 0 9 6 29 14 44 12 23 12 32 0 65 -7
21 -13 44 -14 52 -1 36 -60 52 -94 26 -11 -8 -34 -15 -52 -15 -29 0 -32 3 -43
45 -16 64 -43 79 -130 73 -81 -6 -138 -32 -212 -96 -67 -59 -88 -107 -89 -197
0 -86 -8 -100 -57 -100 -33 0 -39 -4 -47 -30 -26 -86 -71 -187 -93 -209 -16
-17 -38 -26 -65 -28 -53 -4 -74 -31 -92 -120 -8 -37 -25 -82 -39 -100 -13 -18
-27 -41 -30 -50 -4 -10 -12 -18 -18 -18 -7 0 -20 -6 -28 -14 -9 -7 -42 -21
-74 -31 -45 -14 -62 -25 -73 -47 -9 -16 -30 -35 -47 -42 -33 -14 -223 -31
-314 -29 -52 1 -69 -9 -37 -21 9 -3 27 -6 40 -6 14 0 34 -4 44 -10 10 -5 44
-12 76 -16 33 -4 80 -16 107 -26 41 -18 47 -24 47 -50 0 -17 -8 -43 -17 -59
-15 -25 -16 -36 -5 -85 6 -31 9 -60 6 -65 -10 -16 42 -20 71 -5 17 9 38 16 48
16 33 0 85 -28 92 -49 4 -12 18 -23 33 -26 15 -3 43 -14 63 -25 19 -10 70 -23
112 -29 81 -11 106 -6 134 29 14 19 97 19 142 0 19 -8 48 -10 75 -7 46 7 116
-8 116 -24 0 -5 16 -7 39 -3 33 5 41 3 51 -16 9 -16 9 -25 -1 -37 -11 -12 -10
-17 5 -25 13 -8 15 -13 5 -24 -6 -8 -16 -14 -22 -14 -6 0 -22 -13 -36 -28 -32
-34 -89 -50 -230 -63 -58 -5 -132 -16 -164 -24 -32 -8 -71 -15 -85 -15 -15 0
-43 -11 -62 -24 -19 -13 -45 -26 -57 -30 -13 -4 -40 -24 -61 -45 -22 -22 -53
-42 -69 -45 -18 -4 -33 -15 -36 -26 -9 -34 -127 -37 -472 -13 -121 8 -334 8
-387 -1 -57 -9 -67 -28 -35 -70 27 -35 51 -150 41 -191 -6 -25 8 -35 21 -15
10 16 35 12 42 -6 4 -10 -1 -22 -12 -30 -16 -12 -17 -14 -2 -20 11 -4 17 -18
17 -39 0 -18 6 -38 14 -44 13 -11 12 -15 -4 -31 -11 -11 -26 -17 -35 -14 -8 4
-15 1 -15 -5 0 -7 -10 -27 -23 -46 -22 -32 -25 -33 -43 -20 -10 8 -29 15 -42
15 -13 0 -32 5 -44 11 -11 6 -52 11 -91 11 -40 0 -87 6 -106 14 -18 8 -42 14
-53 14 -10 0 -29 6 -41 14 -12 7 -51 19 -87 25 -39 7 -101 30 -156 58 l-92 46
-37 -17 c-46 -22 -80 -14 -100 24 -18 34 -20 117 -4 157 13 32 37 169 45 258
l6 60 -71 28 c-53 21 -75 36 -91 62 -20 33 -38 45 -66 45 -12 0 -14 -70 -14
-460 l0 -460 2000 0 2000 0 0 1895 0 1895 -2000 0 -2000 0 0 -1185z"/>
<path d="M1014 2721 c-25 -11 -30 -22 -39 -87 -4 -27 -18 -85 -31 -129 -14
-44 -27 -114 -30 -155 -4 -66 -2 -80 18 -115 45 -76 134 -110 224 -85 40 11
228 116 268 149 9 8 16 25 16 40 0 25 -1 24 -22 -11 -11 -20 -29 -39 -40 -41
-32 -9 -41 28 -39 150 2 95 -1 118 -18 151 -21 41 -90 108 -127 122 -34 14
-157 21 -180 11z m166 -151 c0 -11 -2 -20 -4 -20 -2 0 -11 -3 -20 -6 -11 -4
-16 0 -16 13 0 23 8 33 27 33 7 0 13 -9 13 -20z"/>
<path d="M1633 2683 c-7 -2 -13 -17 -13 -33 0 -32 33 -59 86 -67 40 -7 44 8
17 56 -23 39 -59 57 -90 44z"/>
<path d="M1462 2445 c0 -16 2 -22 5 -12 2 9 2 23 0 30 -3 6 -5 -1 -5 -18z"/>
<path d="M1916 2354 c-3 -9 -4 -20 0 -25 7 -12 45 -11 63 0 12 8 12 12 2 25
-17 21 -57 21 -65 0z"/>
<path d="M478 2153 c-54 -56 -59 -132 -16 -217 11 -22 28 -79 38 -127 10 -49
33 -116 50 -151 47 -92 52 -113 33 -159 -17 -44 -13 -63 16 -79 18 -9 22 -7
33 20 8 18 28 38 48 48 32 15 36 22 44 74 8 49 6 64 -12 109 -25 58 -28 107
-9 133 11 15 21 16 105 6 111 -14 132 -9 132 30 0 42 -26 52 -114 44 -49 -4
-86 -2 -112 6 -21 7 -64 16 -94 19 -51 6 -56 9 -72 42 -16 31 -17 45 -6 117 9
65 8 84 -2 97 -18 22 -33 19 -62 -12z"/>
<path d="M1312 2135 c-20 -25 -134 -85 -163 -85 -8 0 -39 -7 -68 -16 -39 -11
-51 -19 -49 -32 3 -14 14 -16 73 -14 85 4 144 34 180 93 14 21 30 39 35 39 5
0 14 9 20 20 15 29 -4 25 -28 -5z"/>
</g>
</svg>
